<svg width="768" height="820" viewBox="0 0 768 820" fill="none" xmlns="http://www.w3.org/2000/svg">
<rect width="768" height="820" fill="#0353A4"/>
<path d="M590.569 737.405C585.526 737.405 581.437 733.339 581.437 728.324C581.437 723.308 585.526 719.243 590.569 719.243C595.612 719.243 599.701 723.308 599.701 728.324C599.701 733.323 595.612 737.405 590.569 737.405Z" stroke="white" stroke-width="3" stroke-miterlimit="10" stroke-linecap="round" stroke-linejoin="round"/>
<path d="M584.269 734.888L577.811 741.294" stroke="white" stroke-width="3" stroke-miterlimit="10" stroke-linecap="round" stroke-linejoin="round"/>
<path d="M419.217 78L409.609 87.5541" stroke="white" stroke-width="3" stroke-miterlimit="10" stroke-linecap="round" stroke-linejoin="round"/>
<path d="M419.217 87.5541L409.609 78" stroke="white" stroke-width="3" stroke-miterlimit="10" stroke-linecap="round" stroke-linejoin="round"/>
<path d="M405.461 652.763L395.854 662.317" stroke="white" stroke-width="3" stroke-miterlimit="10" stroke-linecap="round" stroke-linejoin="round"/>
<path d="M405.461 662.317L395.854 652.763" stroke="white" stroke-width="3" stroke-miterlimit="10" stroke-linecap="round" stroke-linejoin="round"/>
<path d="M105.431 263.274L91.8441 263.274" stroke="white" stroke-width="3" stroke-miterlimit="10" stroke-linecap="round" stroke-linejoin="round"/>
<path d="M98.639 270.046L98.639 256.52" stroke="white" stroke-width="3" stroke-miterlimit="10" stroke-linecap="round" stroke-linejoin="round"/>
<path d="M502.866 214.422C498.316 214.422 494.609 210.752 494.609 206.211C494.609 201.686 498.3 198 502.866 198C507.416 198 511.123 201.67 511.123 206.211C511.107 210.752 507.416 214.422 502.866 214.422Z" stroke="white" stroke-width="3" stroke-miterlimit="10" stroke-linecap="round" stroke-linejoin="round"/>
<path d="M667.743 421.169C663.193 421.169 659.486 417.499 659.486 412.958C659.486 408.434 663.177 404.747 667.743 404.747C672.293 404.747 676 408.418 676 412.958C675.984 417.499 672.293 421.169 667.743 421.169Z" stroke="white" stroke-width="3" stroke-miterlimit="10" stroke-linecap="round" stroke-linejoin="round"/>
<path d="M148.592 547.906C144.041 547.906 140.335 544.236 140.335 539.695C140.335 535.17 144.026 531.484 148.592 531.484C153.142 531.484 156.848 535.155 156.848 539.695C156.833 544.236 153.142 547.906 148.592 547.906Z" stroke="white" stroke-width="3" stroke-miterlimit="10" stroke-linecap="round" stroke-linejoin="round"/>
<path d="M247.224 99.2467C247.224 100.889 248.562 102.221 250.214 102.221C251.866 102.221 253.204 100.889 253.204 99.2467C253.204 97.6044 251.866 96.2729 250.214 96.2729C248.562 96.2729 247.224 97.6044 247.224 99.2467Z" fill="white"/>
<path d="M247.224 120.02C247.224 121.662 248.562 122.994 250.214 122.994C251.866 122.994 253.204 121.662 253.204 120.02C253.204 118.378 251.866 117.046 250.214 117.046C248.562 117.046 247.224 118.378 247.224 120.02Z" fill="white"/>
<path d="M247.224 140.774C247.224 142.417 248.562 143.748 250.214 143.748C251.866 143.748 253.204 142.417 253.204 140.774C253.204 139.132 251.866 137.801 250.214 137.801C248.562 137.801 247.224 139.132 247.224 140.774Z" fill="white"/>
<path d="M247.224 161.545C247.224 163.187 248.562 164.519 250.214 164.519C251.866 164.519 253.204 163.187 253.204 161.545C253.204 159.902 251.866 158.571 250.214 158.571C248.562 158.571 247.224 159.902 247.224 161.545Z" fill="white"/>
<path d="M247.224 182.301C247.224 183.943 248.562 185.275 250.214 185.275C251.866 185.275 253.204 183.943 253.204 182.301C253.204 180.659 251.866 179.327 250.214 179.327C248.562 179.327 247.224 180.659 247.224 182.301Z" fill="white"/>
<path d="M247.224 203.071C247.224 204.714 248.562 206.045 250.214 206.045C251.866 206.045 253.204 204.714 253.204 203.071C253.204 201.429 251.866 200.098 250.214 200.098C248.562 200.098 247.224 201.429 247.224 203.071Z" fill="white"/>
<path d="M226.35 99.247C226.35 100.889 227.689 102.221 229.341 102.221C230.992 102.221 232.331 100.889 232.331 99.247C232.331 97.6046 230.992 96.2732 229.341 96.2732C227.689 96.2732 226.35 97.6046 226.35 99.247Z" fill="white"/>
<path d="M226.35 120.02C226.35 121.662 227.689 122.994 229.341 122.994C230.992 122.994 232.331 121.662 232.331 120.02C232.331 118.378 230.992 117.046 229.341 117.046C227.689 117.046 226.35 118.378 226.35 120.02Z" fill="white"/>
<path d="M226.35 140.774C226.35 142.417 227.689 143.748 229.341 143.748C230.992 143.748 232.331 142.417 232.331 140.774C232.331 139.132 230.992 137.801 229.341 137.801C227.689 137.801 226.35 139.132 226.35 140.774Z" fill="white"/>
<path d="M226.35 161.545C226.35 163.187 227.689 164.519 229.341 164.519C230.992 164.519 232.331 163.187 232.331 161.545C232.331 159.902 230.992 158.571 229.341 158.571C227.689 158.571 226.35 159.902 226.35 161.545Z" fill="white"/>
<path d="M226.35 182.301C226.35 183.943 227.689 185.275 229.341 185.275C230.992 185.275 232.331 183.943 232.331 182.301C232.331 180.659 230.992 179.327 229.341 179.327C227.689 179.327 226.35 180.659 226.35 182.301Z" fill="white"/>
<path d="M226.35 203.071C226.35 204.714 227.689 206.045 229.341 206.045C230.992 206.045 232.331 204.714 232.331 203.071C232.331 201.429 230.992 200.098 229.341 200.098C227.689 200.098 226.35 201.429 226.35 203.071Z" fill="white"/>
<path d="M205.461 99.247C205.461 100.889 206.8 102.221 208.452 102.221C210.103 102.221 211.442 100.889 211.442 99.247C211.442 97.6046 210.103 96.2732 208.452 96.2732C206.8 96.2732 205.461 97.6046 205.461 99.247Z" fill="white"/>
<path d="M205.461 120.02C205.461 121.662 206.8 122.994 208.452 122.994C210.103 122.994 211.442 121.662 211.442 120.02C211.442 118.378 210.103 117.046 208.452 117.046C206.8 117.046 205.461 118.378 205.461 120.02Z" fill="white"/>
<path d="M205.461 140.774C205.461 142.417 206.8 143.748 208.452 143.748C210.103 143.748 211.442 142.417 211.442 140.774C211.442 139.132 210.103 137.801 208.452 137.801C206.8 137.801 205.461 139.132 205.461 140.774Z" fill="white"/>
<path d="M205.461 161.545C205.461 163.187 206.8 164.519 208.452 164.519C210.103 164.519 211.442 163.187 211.442 161.545C211.442 159.902 210.103 158.571 208.452 158.571C206.8 158.571 205.461 159.902 205.461 161.545Z" fill="white"/>
<path d="M205.461 182.301C205.461 183.943 206.8 185.275 208.452 185.275C210.103 185.275 211.442 183.943 211.442 182.301C211.442 180.659 210.103 179.327 208.452 179.327C206.8 179.327 205.461 180.659 205.461 182.301Z" fill="white"/>
<path d="M205.461 203.071C205.461 204.714 206.8 206.045 208.452 206.045C210.103 206.045 211.442 204.714 211.442 203.071C211.442 201.429 210.103 200.098 208.452 200.098C206.8 200.098 205.461 201.429 205.461 203.071Z" fill="white"/>
<path d="M184.588 99.247C184.588 100.889 185.927 102.221 187.579 102.221C189.23 102.221 190.569 100.889 190.569 99.247C190.569 97.6046 189.23 96.2732 187.579 96.2732C185.927 96.2732 184.588 97.6046 184.588 99.247Z" fill="white"/>
<path d="M184.588 120.02C184.588 121.662 185.927 122.994 187.579 122.994C189.23 122.994 190.569 121.662 190.569 120.02C190.569 118.378 189.23 117.046 187.579 117.046C185.927 117.046 184.588 118.378 184.588 120.02Z" fill="white"/>
<path d="M184.588 140.774C184.588 142.417 185.927 143.748 187.579 143.748C189.23 143.748 190.569 142.417 190.569 140.774C190.569 139.132 189.23 137.801 187.579 137.801C185.927 137.801 184.588 139.132 184.588 140.774Z" fill="white"/>
<path d="M184.588 161.545C184.588 163.187 185.927 164.519 187.579 164.519C189.23 164.519 190.569 163.187 190.569 161.545C190.569 159.902 189.23 158.571 187.579 158.571C185.927 158.571 184.588 159.902 184.588 161.545Z" fill="white"/>
<path d="M184.588 182.301C184.588 183.943 185.927 185.275 187.579 185.275C189.23 185.275 190.569 183.943 190.569 182.301C190.569 180.659 189.23 179.327 187.579 179.327C185.927 179.327 184.588 180.659 184.588 182.301Z" fill="white"/>
<path d="M184.588 203.071C184.588 204.714 185.927 206.045 187.579 206.045C189.23 206.045 190.569 204.714 190.569 203.071C190.569 201.429 189.23 200.098 187.579 200.098C185.927 200.098 184.588 201.429 184.588 203.071Z" fill="white"/>
<path d="M587.788 553.706C587.788 555.348 589.127 556.679 590.779 556.679C592.43 556.679 593.769 555.348 593.769 553.706C593.769 552.063 592.43 550.732 590.779 550.732C589.127 550.732 587.788 552.063 587.788 553.706Z" fill="white"/>
<path d="M587.789 574.46C587.789 576.103 589.128 577.434 590.78 577.434C592.431 577.434 593.77 576.103 593.77 574.46C593.77 572.818 592.431 571.487 590.78 571.487C589.128 571.487 587.789 572.818 587.789 574.46Z" fill="white"/>
<path d="M587.789 595.23C587.789 596.872 589.128 598.204 590.78 598.204C592.431 598.204 593.77 596.872 593.77 595.23C593.77 593.588 592.431 592.256 590.78 592.256C589.128 592.256 587.789 593.588 587.789 595.23Z" fill="white"/>
<path d="M566.9 553.703C566.9 555.346 568.239 556.677 569.891 556.677C571.542 556.677 572.881 555.346 572.881 553.703C572.881 552.061 571.542 550.73 569.891 550.73C568.239 550.73 566.9 552.061 566.9 553.703Z" fill="white"/>
<path d="M566.9 574.46C566.9 576.103 568.239 577.434 569.891 577.434C571.542 577.434 572.881 576.103 572.881 574.46C572.881 572.818 571.542 571.487 569.891 571.487C568.239 571.487 566.9 572.818 566.9 574.46Z" fill="white"/>
<path d="M566.9 595.228C566.9 596.871 568.239 598.202 569.891 598.202C571.542 598.202 572.881 596.871 572.881 595.228C572.881 593.586 571.542 592.255 569.891 592.255C568.239 592.255 566.9 593.586 566.9 595.228Z" fill="white"/>
<path d="M661.498 187.974C661.498 189.617 662.837 190.948 664.488 190.948C666.14 190.948 667.479 189.617 667.479 187.974C667.479 186.332 666.14 185.001 664.488 185.001C662.837 185.001 661.498 186.332 661.498 187.974Z" fill="white"/>
<path d="M661.498 208.728C661.498 210.37 662.837 211.702 664.489 211.702C666.14 211.702 667.479 210.37 667.479 208.728C667.479 207.086 666.14 205.754 664.489 205.754C662.837 205.754 661.498 207.086 661.498 208.728Z" fill="white"/>
<path d="M661.498 229.5C661.498 231.143 662.837 232.474 664.489 232.474C666.14 232.474 667.479 231.143 667.479 229.5C667.479 227.858 666.14 226.527 664.489 226.527C662.837 226.527 661.498 227.858 661.498 229.5Z" fill="white"/>
<path d="M640.609 187.974C640.609 189.616 641.948 190.948 643.599 190.948C645.251 190.948 646.59 189.616 646.59 187.974C646.59 186.331 645.251 185 643.599 185C641.948 185 640.609 186.331 640.609 187.974Z" fill="white"/>
<path d="M640.609 208.73C640.609 210.372 641.948 211.704 643.599 211.704C645.251 211.704 646.59 210.372 646.59 208.73C646.59 207.088 645.251 205.756 643.599 205.756C641.948 205.756 640.609 207.088 640.609 208.73Z" fill="white"/>
<path d="M640.609 229.5C640.609 231.143 641.948 232.474 643.599 232.474C645.251 232.474 646.59 231.143 646.59 229.5C646.59 227.858 645.251 226.526 643.599 226.526C641.948 226.526 640.609 227.858 640.609 229.5Z" fill="white"/>
<path d="M254.711 738.983C254.711 740.626 256.049 741.957 257.701 741.957C259.353 741.957 260.691 740.626 260.691 738.983C260.691 737.341 259.353 736.01 257.701 736.01C256.049 736.01 254.711 737.341 254.711 738.983Z" fill="white"/>
<path d="M233.822 738.983C233.822 740.626 235.16 741.957 236.812 741.957C238.464 741.957 239.802 740.626 239.802 738.983C239.802 737.341 238.464 736.01 236.812 736.01C235.16 736.01 233.822 737.341 233.822 738.983Z" fill="white"/>
<path d="M212.948 738.983C212.948 740.626 214.287 741.957 215.939 741.957C217.59 741.957 218.929 740.626 218.929 738.983C218.929 737.341 217.59 736.01 215.939 736.01C214.287 736.01 212.948 737.341 212.948 738.983Z" fill="white"/>
<path d="M192.059 738.983C192.059 740.626 193.398 741.957 195.05 741.957C196.701 741.957 198.04 740.626 198.04 738.983C198.04 737.341 196.701 736.01 195.05 736.01C193.398 736.01 192.059 737.341 192.059 738.983Z" fill="white"/>
<path d="M171.186 738.983C171.186 740.626 172.525 741.957 174.177 741.957C175.828 741.957 177.167 740.626 177.167 738.983C177.167 737.341 175.828 736.01 174.177 736.01C172.525 736.01 171.186 737.341 171.186 738.983Z" fill="white"/>
<path d="M150.297 738.983C150.297 740.626 151.636 741.957 153.288 741.957C154.939 741.957 156.278 740.626 156.278 738.983C156.278 737.341 154.939 736.01 153.288 736.01C151.636 736.01 150.297 737.341 150.297 738.983Z" fill="white"/>
<path d="M129.424 738.983C129.424 740.626 130.763 741.957 132.414 741.957C134.066 741.957 135.405 740.626 135.405 738.983C135.405 737.341 134.066 736.01 132.414 736.01C130.763 736.01 129.424 737.341 129.424 738.983Z" fill="white"/>
<path d="M254.711 718.212C254.711 719.854 256.049 721.186 257.701 721.186C259.353 721.186 260.691 719.854 260.691 718.212C260.691 716.57 259.353 715.238 257.701 715.238C256.049 715.238 254.711 716.57 254.711 718.212Z" fill="white"/>
<path d="M233.822 718.212C233.822 719.854 235.16 721.186 236.812 721.186C238.464 721.186 239.802 719.854 239.802 718.212C239.802 716.57 238.464 715.238 236.812 715.238C235.16 715.238 233.822 716.57 233.822 718.212Z" fill="white"/>
<path d="M212.948 718.212C212.948 719.854 214.287 721.186 215.939 721.186C217.59 721.186 218.929 719.854 218.929 718.212C218.929 716.57 217.59 715.238 215.939 715.238C214.287 715.238 212.948 716.57 212.948 718.212Z" fill="white"/>
<path d="M192.059 718.212C192.059 719.854 193.398 721.186 195.05 721.186C196.701 721.186 198.04 719.854 198.04 718.212C198.04 716.57 196.701 715.238 195.05 715.238C193.398 715.238 192.059 716.57 192.059 718.212Z" fill="white"/>
<path d="M171.186 718.212C171.186 719.854 172.525 721.186 174.177 721.186C175.828 721.186 177.167 719.854 177.167 718.212C177.167 716.57 175.828 715.238 174.177 715.238C172.525 715.238 171.186 716.57 171.186 718.212Z" fill="white"/>
<path d="M150.297 718.212C150.297 719.854 151.636 721.186 153.288 721.186C154.939 721.186 156.278 719.854 156.278 718.212C156.278 716.57 154.939 715.238 153.288 715.238C151.636 715.238 150.297 716.57 150.297 718.212Z" fill="white"/>
<path d="M129.424 718.212C129.424 719.854 130.763 721.186 132.414 721.186C134.066 721.186 135.405 719.854 135.405 718.212C135.405 716.57 134.066 715.238 132.414 715.238C130.763 715.238 129.424 716.57 129.424 718.212Z" fill="white"/>
<path d="M254.711 697.456C254.711 699.098 256.049 700.43 257.701 700.43C259.353 700.43 260.691 699.098 260.691 697.456C260.691 695.814 259.353 694.482 257.701 694.482C256.049 694.482 254.711 695.814 254.711 697.456Z" fill="white"/>
<path d="M233.822 697.456C233.822 699.098 235.16 700.43 236.812 700.43C238.464 700.43 239.802 699.098 239.802 697.456C239.802 695.814 238.464 694.482 236.812 694.482C235.16 694.482 233.822 695.814 233.822 697.456Z" fill="white"/>
<path d="M212.948 697.456C212.948 699.098 214.287 700.43 215.939 700.43C217.59 700.43 218.929 699.098 218.929 697.456C218.929 695.814 217.59 694.482 215.939 694.482C214.287 694.482 212.948 695.814 212.948 697.456Z" fill="white"/>
<path d="M192.059 697.456C192.059 699.098 193.398 700.43 195.05 700.43C196.701 700.43 198.04 699.098 198.04 697.456C198.04 695.814 196.701 694.482 195.05 694.482C193.398 694.482 192.059 695.814 192.059 697.456Z" fill="white"/>
<path d="M171.186 697.456C171.186 699.098 172.525 700.43 174.177 700.43C175.828 700.43 177.167 699.098 177.167 697.456C177.167 695.814 175.828 694.482 174.177 694.482C172.525 694.482 171.186 695.814 171.186 697.456Z" fill="white"/>
<path d="M150.297 697.456C150.297 699.098 151.636 700.43 153.288 700.43C154.939 700.43 156.278 699.098 156.278 697.456C156.278 695.814 154.939 694.482 153.288 694.482C151.636 694.482 150.297 695.814 150.297 697.456Z" fill="white"/>
<path d="M129.424 697.456C129.424 699.098 130.763 700.43 132.414 700.43C134.066 700.43 135.405 699.098 135.405 697.456C135.405 695.814 134.066 694.482 132.414 694.482C130.763 694.482 129.424 695.814 129.424 697.456Z" fill="white"/>
<path d="M254.708 676.686C254.708 678.328 256.047 679.66 257.699 679.66C259.351 679.66 260.689 678.328 260.689 676.686C260.689 675.043 259.351 673.712 257.699 673.712C256.047 673.712 254.708 675.043 254.708 676.686Z" fill="white"/>
<path d="M233.822 676.685C233.822 678.328 235.16 679.659 236.812 679.659C238.464 679.659 239.802 678.328 239.802 676.685C239.802 675.043 238.464 673.712 236.812 673.712C235.16 673.712 233.822 675.043 233.822 676.685Z" fill="white"/>
<path d="M212.948 676.685C212.948 678.328 214.287 679.659 215.939 679.659C217.59 679.659 218.929 678.328 218.929 676.685C218.929 675.043 217.59 673.712 215.939 673.712C214.287 673.712 212.948 675.043 212.948 676.685Z" fill="white"/>
<path d="M192.059 676.685C192.059 678.328 193.398 679.659 195.05 679.659C196.701 679.659 198.04 678.328 198.04 676.685C198.04 675.043 196.701 673.712 195.05 673.712C193.398 673.712 192.059 675.043 192.059 676.685Z" fill="white"/>
<path d="M171.186 676.685C171.186 678.328 172.525 679.659 174.177 679.659C175.828 679.659 177.167 678.328 177.167 676.685C177.167 675.043 175.828 673.712 174.177 673.712C172.525 673.712 171.186 675.043 171.186 676.685Z" fill="white"/>
<path d="M150.297 676.685C150.297 678.328 151.636 679.659 153.288 679.659C154.939 679.659 156.278 678.328 156.278 676.685C156.278 675.043 154.939 673.712 153.288 673.712C151.636 673.712 150.297 675.043 150.297 676.685Z" fill="white"/>
<path d="M129.424 676.685C129.424 678.328 130.763 679.659 132.414 679.659C134.066 679.659 135.405 678.328 135.405 676.685C135.405 675.043 134.066 673.712 132.414 673.712C130.763 673.712 129.424 675.043 129.424 676.685Z" fill="white"/>
</svg>
